<svg width="23" height="23" viewBox="0 0 23 23" fill="none" xmlns="http://www.w3.org/2000/svg">
<path d="M11.3403 0.394531C5.07828 0.394531 6.54487e-06 5.49265 6.54487e-06 11.7817C-0.0025519 14.1684 0.745038 16.4957 2.13712 18.4345C3.5292 20.3733 5.49538 21.8256 7.75777 22.5861C8.32485 22.691 8.53184 22.3394 8.53184 22.0374C8.53184 21.7666 8.52192 21.0507 8.51625 20.1008C5.36182 20.7884 4.69549 18.5739 4.69549 18.5739C4.18086 17.2583 3.43656 16.9081 3.43656 16.9081C2.40588 16.2021 3.51311 16.2163 3.51311 16.2163C4.65154 16.2971 5.24982 17.3902 5.24982 17.3902C6.26207 19.1297 7.90521 18.6278 8.55169 18.3358C8.65376 17.6 8.94723 17.0981 9.27189 16.8131C6.75402 16.5253 4.10572 15.5485 4.10572 11.1862C4.10572 9.94287 4.54805 8.92637 5.27392 8.12961C5.15625 7.84181 4.7678 6.68353 5.3845 5.11695C5.3845 5.11695 6.33721 4.81073 8.50349 6.28374C9.4289 6.03083 10.3838 5.90211 11.3432 5.90095C12.3026 5.90286 13.2575 6.03205 14.1829 6.28515C16.3477 4.81214 17.299 5.11837 17.299 5.11837C17.9171 6.68637 17.5287 7.84323 17.4124 8.13102C18.1397 8.92778 18.5778 9.94429 18.5778 11.1876C18.5778 15.5613 15.9267 16.5239 13.4003 16.806C13.8072 17.1576 14.1701 17.8523 14.1701 18.9142C14.1701 20.4368 14.1559 21.6646 14.1559 22.0374C14.1559 22.3422 14.3601 22.6967 14.9357 22.5847C17.1959 21.8223 19.1596 20.3695 20.5497 18.4312C21.9399 16.4929 22.6863 14.1669 22.6835 11.7817C22.6835 5.49265 17.6052 0.394531 11.3403 0.394531Z" fill="white"/>
</svg>
