<svg width="26" height="21" viewBox="0 0 26 21" fill="none" xmlns="http://www.w3.org/2000/svg">
<path d="M3.10419 13.582C4.81865 13.582 6.2085 14.9719 6.2085 16.6863L6.2085 16.8013C6.2085 18.5793 4.76716 20.0206 2.98919 20.0206L-0.000108143 20.0206L-0.000108003 16.6863C-0.000107931 14.9719 1.38974 13.582 3.10419 13.582Z" fill="white"/>
<path d="M5.31649 7.65683C3.87991 4.97275 4.85423 1.56569 7.49268 0.0469576L15.9093 15.7723C16.6276 17.1144 16.1404 18.8179 14.8212 19.5773C13.502 20.3366 11.8502 19.8643 11.1319 18.5223L5.31649 7.65683Z" fill="white"/>
<path d="M14.1065 7.65683C12.67 4.97275 13.6443 1.56569 16.2827 0.0469576L24.6993 15.7723C25.4176 17.1144 24.9304 18.8179 23.6112 19.5773C22.292 20.3366 20.6403 19.8643 19.922 18.5223L14.1065 7.65683Z" fill="white"/>
</svg>
